<?xml version="1.0" standalone="no"?>
<!DOCTYPE svg PUBLIC "-//W3C//DTD SVG 20010904//EN"
 "http://www.w3.org/TR/2001/REC-SVG-20010904/DTD/svg10.dtd">
<svg version="1.0" xmlns="http://www.w3.org/2000/svg"
 width="1280.000000pt" height="1280.000000pt" viewBox="0 0 1280.000000 1280.000000"
 preserveAspectRatio="xMidYMid meet">

<g transform="translate(0.000000,1280.000000) scale(0.100000,-0.100000)"
fill="#000000" stroke="none">
<path d="M5695 10811 c-58 -9 -118 -37 -110 -51 3 -5 -9 -23 -26 -39 -27 -26
-30 -33 -19 -46 15 -18 6 -30 -25 -38 -11 -3 4 -5 33 -6 32 -1 52 3 52 10 0 6
6 9 14 6 7 -3 18 -1 24 5 8 8 15 8 25 -1 8 -6 21 -9 30 -5 8 3 18 1 22 -5 7
-12 26 -15 23 -3 -3 6 7 13 15 11 27 -7 89 -12 155 -13 62 -1 81 -4 77 -13 -2
-7 0 -13 5 -13 6 0 10 7 10 16 0 11 5 14 18 9 39 -16 54 -17 63 -4 7 11 9 11
9 -3 0 -13 8 -16 35 -14 19 2 35 -1 35 -6 0 -6 11 -7 25 -4 16 4 25 2 25 -5 0
-6 6 -9 13 -6 21 8 82 -8 79 -21 -1 -7 2 -12 8 -12 6 0 10 5 10 10 0 13 37 13
42 0 2 -5 18 -12 37 -14 19 -2 38 -11 43 -20 7 -12 14 -14 28 -6 13 7 19 6 24
-6 3 -8 11 -12 16 -9 13 8 42 -14 34 -26 -3 -5 -1 -9 5 -9 5 0 11 5 13 11 4
12 57 -8 70 -26 5 -6 8 -4 8 5 1 12 3 11 11 -3 7 -12 17 -16 30 -12 12 4 21 1
25 -9 3 -9 17 -16 29 -16 13 0 26 -4 30 -9 3 -5 18 -12 34 -16 16 -3 39 -17
51 -30 13 -14 28 -21 38 -18 11 5 14 2 9 -10 -3 -9 -2 -19 3 -22 6 -4 10 -1
10 4 0 18 19 12 48 -14 15 -14 31 -25 36 -25 5 0 18 -8 28 -17 11 -10 29 -27
41 -38 12 -12 34 -28 48 -37 14 -9 43 -39 64 -67 22 -28 43 -51 47 -51 12 0
-20 48 -59 90 -18 19 -33 38 -33 42 0 10 -177 181 -235 226 -236 186 -515 310
-805 358 -104 18 -327 26 -395 15z m-8 -17 c-3 -3 -12 -4 -19 -1 -8 3 -5 6 6
6 11 1 17 -2 13 -5z m-47 -34 c0 -5 -9 -10 -20 -10 -11 0 -20 5 -20 10 0 6 9
10 20 10 11 0 20 -4 20 -10z"/>
<path d="M7590 10781 c0 -6 4 -13 10 -16 6 -3 7 1 4 9 -7 18 -14 21 -14 7z"/>
<path d="M5458 10773 c7 -3 16 -2 19 1 4 3 -2 6 -13 5 -11 0 -14 -3 -6 -6z"/>
<path d="M5507 10718 c7 -46 13 -48 13 -5 0 21 -4 37 -9 37 -5 0 -7 -15 -4
-32z"/>
<path d="M7631 10733 c8 -10 17 -20 20 -23 4 -3 29 -34 57 -70 29 -36 55 -69
60 -75 267 -336 435 -713 506 -1145 32 -188 38 -291 43 -665 2 -209 8 -381 13
-383 34 -12 149 -101 227 -175 144 -138 247 -315 300 -514 25 -97 26 -103 35
-648 5 -302 10 -1208 9 -2013 0 -1274 2 -1462 14 -1462 8 0 15 -7 15 -16 0
-10 -6 -14 -15 -11 -8 4 -17 2 -20 -3 -4 -6 9 -10 29 -10 20 0 36 -4 36 -9 0
-5 -9 -7 -20 -4 -21 6 -24 -5 -14 -44 4 -13 13 -23 20 -23 13 0 19 -23 16 -62
-2 -23 17 -22 48 2 14 11 34 20 45 20 18 1 18 2 -2 10 -22 9 -32 30 -15 30 7
0 7 216 0 270 -2 14 -1 27 3 30 4 3 4 20 2 37 -4 24 -11 33 -24 33 -11 0 -19
5 -19 10 0 6 9 10 20 10 23 0 27 15 5 24 -19 7 -19 35 0 42 22 9 18 24 -6 24
-18 0 -19 3 -9 15 6 8 9 19 5 25 -4 6 1 18 11 25 11 9 14 14 7 15 -15 0 -18
30 -3 30 6 0 10 7 10 15 0 8 -7 15 -16 15 -11 0 -14 5 -9 18 4 9 7 22 6 27 -2
32 -10 66 -17 77 -12 18 -5 48 14 67 14 15 13 16 -11 21 l-28 5 30 24 29 24
-21 17 c-18 15 -19 20 -8 33 7 9 10 20 7 26 -3 5 0 12 6 14 8 4 4 8 -9 12 -13
4 -23 11 -23 15 0 4 10 10 23 14 16 4 19 8 9 15 -9 5 -13 24 -11 54 2 26 0 49
-4 53 -9 9 3 57 16 65 5 4 0 12 -12 18 -25 14 -19 31 12 31 16 0 19 3 8 9 -7
5 -10 14 -7 20 4 6 0 11 -10 11 -16 0 -16 1 1 20 18 20 17 20 -15 20 -35 0
-32 15 5 22 16 3 19 10 17 33 -2 16 -8 35 -13 41 -7 8 -6 15 1 19 7 4 9 18 6
30 -4 14 0 29 9 39 20 20 19 25 -4 19 -23 -6 -39 16 -20 27 10 7 10 12 1 23
-10 12 -8 16 13 21 30 8 34 26 5 26 -11 0 -20 5 -20 10 0 6 9 10 20 10 28 0
25 18 -5 26 -28 7 -24 24 6 24 25 0 25 16 -1 23 -20 5 -23 28 -6 55 4 7 3 19
-3 26 -7 9 -7 16 1 24 9 9 8 12 -5 12 -22 0 -22 16 1 30 16 10 16 10 0 20 -13
8 -18 24 -18 61 0 47 1 50 23 44 19 -5 20 -4 5 5 -10 6 -18 22 -18 35 0 16 -7
26 -22 31 l-23 7 23 8 c18 7 22 14 17 29 -5 14 -2 20 9 20 21 0 20 17 -1 29
-10 6 -12 11 -5 11 15 0 16 60 1 60 -8 0 -8 5 1 15 7 8 19 15 27 15 12 0 13 3
4 14 -9 11 -9 16 0 22 9 5 6 10 -8 15 -18 6 -21 15 -19 51 1 24 -2 49 -8 56
-6 9 -6 16 0 20 13 9 14 122 2 122 -5 0 -6 5 -3 10 3 6 15 10 26 10 10 0 19 5
19 10 0 6 -7 10 -16 10 -11 0 -14 6 -9 20 4 12 2 20 -5 20 -6 0 -8 5 -5 11 4
6 13 8 21 5 17 -7 18 8 2 34 -11 17 -10 22 1 29 8 5 11 16 8 24 -3 8 1 27 9
42 8 15 11 31 8 36 -3 6 0 17 8 26 11 15 10 16 -9 11 -26 -7 -32 9 -7 19 10 4
14 16 12 37 -2 22 1 31 12 32 24 2 50 15 50 26 0 6 -6 5 -15 -2 -16 -14 -35
-6 -35 16 0 8 10 14 24 14 32 0 40 14 20 34 -14 15 -14 16 5 16 12 0 21 5 21
10 0 6 -5 10 -11 10 -12 0 -8 42 4 51 13 9 14 78 2 83 -5 3 0 5 13 5 27 1 30
21 2 21 -11 0 -20 5 -20 10 0 6 9 10 20 10 11 0 20 5 20 10 0 6 -9 10 -20 10
-14 0 -18 5 -13 17 4 11 8 13 11 5 6 -18 22 -4 22 19 0 21 -16 26 -23 7 -4
-10 -6 -10 -6 0 -1 8 9 22 22 33 19 16 19 18 5 19 -22 0 -23 8 -4 29 9 11 16
57 21 146 3 71 10 134 15 140 5 6 7 32 5 59 -4 49 -15 77 -15 38 0 -12 -5 -22
-10 -22 -9 0 -8 20 6 72 3 9 1 19 -4 22 -5 3 -8 39 -6 81 3 62 1 75 -11 75
-10 0 -15 10 -15 30 0 20 -4 28 -13 24 -10 -3 -14 4 -14 25 0 17 -7 39 -16 48
-8 10 -16 20 -16 23 0 3 -4 18 -10 33 -6 16 -11 31 -11 34 0 3 -11 21 -26 40
-14 18 -22 38 -19 43 3 6 -1 10 -10 10 -8 0 -20 11 -25 25 -5 14 -15 25 -21
25 -7 0 -9 9 -6 21 3 12 3 18 0 15 -9 -9 -43 13 -43 28 0 8 -7 17 -16 20 -9 3
-12 11 -8 18 5 7 2 9 -8 6 -10 -4 -19 4 -29 29 -7 19 -22 39 -31 44 -10 6 -16
14 -14 18 3 4 -15 29 -39 55 -25 25 -45 51 -45 57 0 5 -5 7 -11 3 -8 -4 -9 0
-4 15 5 17 3 20 -11 14 -11 -4 -15 -2 -11 4 9 15 -22 73 -38 73 -11 0 -12 6
-5 24 7 18 5 28 -6 37 -12 10 -12 14 -2 20 9 6 8 9 -6 9 -15 0 -17 5 -13 29 3
16 3 32 0 35 -4 4 -8 26 -9 51 -2 34 1 45 14 48 10 3 5 5 -10 6 -30 1 -37 15
-13 25 14 5 14 8 -1 31 -13 20 -14 28 -4 40 7 9 10 18 7 22 -4 3 -2 12 4 20 9
10 8 13 -5 13 -9 0 -16 7 -16 16 0 8 5 12 10 9 6 -3 10 1 10 9 0 9 -7 16 -15
16 -11 0 -14 7 -10 23 3 12 7 68 9 125 4 98 3 104 -18 112 -18 8 -19 9 -2 9
15 1 17 6 12 34 -4 17 -10 33 -15 35 -6 2 -5 16 0 35 12 43 11 57 -3 57 -13 0
-18 33 -19 118 0 31 -4 42 -16 42 -11 0 -14 6 -10 22 4 12 1 28 -6 36 -6 8
-10 29 -8 48 1 18 -5 49 -14 68 -9 19 -14 40 -10 46 4 6 0 19 -8 28 -8 9 -18
31 -21 49 -4 17 -14 34 -22 37 -9 4 -13 13 -10 23 3 10 -1 31 -9 47 -8 15 -15
39 -15 52 0 12 -4 26 -10 29 -5 3 -10 16 -10 29 0 14 -9 27 -22 34 -13 6 -17
11 -10 11 20 1 14 18 -9 24 -16 4 -19 11 -14 27 5 16 2 23 -13 27 -13 3 -18
11 -15 23 3 10 -7 36 -21 59 -14 22 -26 45 -26 51 0 5 -6 9 -12 7 -7 -1 -12 4
-11 11 2 6 -2 12 -7 12 -5 0 -10 7 -10 15 0 8 -3 15 -7 15 -10 0 -33 49 -33
68 0 7 -4 10 -10 7 -5 -3 -10 -1 -10 4 0 11 -9 23 -56 75 -13 15 -24 33 -24
41 0 8 -6 15 -13 15 -7 0 -19 11 -27 24 -8 13 -47 58 -87 100 -39 41 -78 85
-87 98 -9 12 -16 20 -16 17 0 -4 -31 25 -69 62 -38 38 -74 69 -79 69 -6 0 -22
14 -35 30 -27 32 -49 43 -26 13z m856 -1315 c-3 -8 -6 -5 -6 6 -1 11 2 17 5
13 3 -3 4 -12 1 -19z m470 -3400 c-3 -8 -6 -5 -6 6 -1 11 2 17 5 13 3 -3 4
-12 1 -19z m0 -180 c-2 -18 -4 -6 -4 27 0 33 2 48 4 33 2 -15 2 -42 0 -60z m0
-74 c-3 -3 -12 -4 -19 -1 -8 3 -5 6 6 6 11 1 17 -2 13 -5z m43 -44 c0 -5 -4
-10 -10 -10 -5 0 -10 5 -10 10 0 6 5 10 10 10 6 0 10 -4 10 -10z m-40 -25 c0
-8 -7 -15 -15 -15 -26 0 -18 20 13 29 1 1 2 -6 2 -14z m-21 -257 c1 -46 -3
-78 -9 -78 -6 0 -10 40 -9 103 1 119 16 98 18 -25z m18 100 c-3 -8 -6 -5 -6 6
-1 11 2 17 5 13 3 -3 4 -12 1 -19z m3 -178 c0 -73 -2 -80 -20 -80 -16 0 -20 7
-20 30 0 32 16 41 23 13 3 -10 5 12 6 50 0 37 3 67 6 67 3 0 5 -36 5 -80z
m-33 -282 c-2 -24 -4 -5 -4 42 0 47 2 66 4 43 2 -24 2 -62 0 -85z m0 -70 c-3
-8 -6 -5 -6 6 -1 11 2 17 5 13 3 -3 4 -12 1 -19z m30 0 c-3 -8 -6 -5 -6 6 -1
11 2 17 5 13 3 -3 4 -12 1 -19z m40 -684 c-3 -3 -12 -4 -19 -1 -8 3 -5 6 6 6
11 1 17 -2 13 -5z m-50 -160 c-3 -3 -12 -4 -19 -1 -8 3 -5 6 6 6 11 1 17 -2
13 -5z m-17 -550 c0 -8 -4 -14 -10 -14 -5 0 -10 9 -10 21 0 11 5 17 10 14 6
-3 10 -13 10 -21z m80 -204 c0 -5 -4 -10 -10 -10 -5 0 -10 5 -10 10 0 6 5 10
10 10 6 0 10 -4 10 -10z"/>
<path d="M4036 9403 c-34 -4 -36 -6 -20 -17 16 -12 15 -14 -7 -19 -21 -5 -28
-17 -42 -74 -35 -140 -41 -232 -39 -552 1 -173 4 -316 7 -319 3 -3 36 -6 73
-6 110 -1 268 6 250 11 -10 2 -18 11 -18 19 0 8 -5 14 -11 14 -23 0 -37 29
-38 76 0 60 -10 115 -24 132 -7 9 -7 16 1 24 16 16 15 31 -2 25 -11 -4 -12 2
-4 33 7 27 7 44 -2 57 -10 15 -11 15 -6 1 3 -10 1 -20 -4 -23 -6 -4 -11 14
-11 42 -1 26 -3 66 -6 88 -2 22 -4 48 -4 58 0 9 -7 17 -15 17 -8 0 -14 5 -14
10 0 6 7 10 15 10 8 0 15 5 15 10 0 6 -9 10 -21 10 -13 0 -18 4 -13 12 5 7 7
29 5 50 -2 26 2 38 11 38 8 1 5 6 -7 16 -17 12 -17 16 -6 24 11 6 12 12 3 22
-6 8 -9 23 -6 35 3 12 1 30 -5 41 -7 14 -8 23 -1 27 6 4 7 11 4 17 -4 7 -9 6
-14 -2 -5 -9 -9 -9 -14 -1 -4 6 -2 11 3 11 20 0 11 38 -10 43 -23 6 -17 27 7
27 8 0 14 5 14 10 0 6 -1 9 -2 8 -2 -1 -20 -3 -42 -5z"/>
<path d="M4030 7821 c-47 -4 -110 -15 -140 -25 -52 -16 -55 -19 -56 -52 0 -20
3 -29 7 -22 4 7 11 9 16 5 4 -4 2 -16 -4 -25 -13 -21 0 -36 41 -46 20 -5 32
-3 38 6 8 10 11 10 15 1 7 -18 23 -16 23 3 0 23 20 6 21 -19 1 -20 2 -20 6 -3
5 18 6 18 24 -5 15 -20 19 -21 19 -6 0 11 8 17 25 17 13 0 29 -8 34 -17 10
-17 10 -17 11 0 0 9 5 17 10 17 6 0 10 -7 10 -15 0 -23 27 -18 35 8 l8 22 4
-22 c5 -25 18 -30 29 -11 5 8 11 6 20 -6 10 -15 15 -15 32 -5 16 10 26 10 45
2 15 -7 38 -8 60 -3 20 4 38 5 41 2 4 -3 6 0 6 6 0 7 5 12 10 12 6 0 10 -7 10
-15 0 -8 5 -15 10 -15 6 0 10 7 10 15 0 19 16 20 23 1 4 -11 20 -13 69 -9 35
2 65 9 66 14 4 11 32 12 32 2 0 -5 19 -9 41 -10 35 -1 40 1 36 18 -4 16 -2 17
15 8 16 -8 23 -8 29 2 6 11 9 10 15 -4 9 -23 21 -21 27 5 5 17 9 19 20 9 18
-15 72 3 61 21 -4 7 -3 8 5 4 6 -4 18 -2 26 4 11 9 15 9 15 1 0 -6 -5 -11 -11
-11 -5 0 -7 -4 -4 -10 10 -17 48 -12 41 5 -3 8 -1 15 4 15 6 0 10 -4 10 -10 0
-5 11 -10 25 -10 16 0 25 6 25 15 0 8 5 15 10 15 6 0 10 -7 10 -15 0 -22 21
-18 27 5 4 14 11 19 23 15 11 -3 22 0 27 8 11 19 80 30 87 14 2 -7 5 -2 5 11
1 18 7 22 30 22 16 0 32 -6 34 -12 4 -10 7 -10 15 0 5 7 16 10 27 6 13 -5 16
-4 11 4 -5 8 0 12 14 12 13 0 19 -4 14 -11 -4 -7 -1 -10 7 -7 8 3 13 11 12 17
-2 7 19 11 60 12 34 1 107 5 162 9 l100 8 -120 -3 c-148 -4 -228 7 -120 16 39
3 -47 6 -190 7 -143 1 -460 4 -705 6 -245 3 -483 1 -530 -3z m1318 -38 c-10
-2 -26 -2 -35 0 -10 3 -2 5 17 5 19 0 27 -2 18 -5z m-338 -93 c0 -5 -8 -10
-17 -10 -15 0 -16 2 -3 10 19 12 20 12 20 0z m-480 -50 c0 -5 -7 -10 -15 -10
-8 0 -15 5 -15 10 0 6 7 10 15 10 8 0 15 -4 15 -10z"/>
<path d="M7458 7803 c7 -3 16 -2 19 1 4 3 -2 6 -13 5 -11 0 -14 -3 -6 -6z"/>
<path d="M7533 7804 c20 -4 27 -10 23 -21 -4 -9 1 -17 14 -20 11 -3 23 -16 26
-29 5 -20 9 -22 20 -13 11 9 18 8 33 -5 10 -9 25 -14 35 -10 12 5 16 0 16 -22
1 -25 2 -26 11 -11 14 23 28 22 22 -3 -3 -11 -1 -20 5 -20 6 0 13 8 15 18 4
14 5 13 6 -4 1 -17 6 -20 27 -16 25 4 26 3 20 -22 -4 -15 -2 -26 4 -26 5 0 10
7 10 15 0 8 6 15 13 15 17 -1 50 -27 40 -32 -4 -3 -2 -3 6 -1 7 2 20 -2 28 -9
11 -9 16 -9 24 3 7 11 9 10 9 -7 0 -28 10 -36 27 -23 10 9 13 8 13 0 0 -15 68
-44 87 -37 8 3 12 2 9 -2 -6 -10 57 -72 73 -72 6 0 18 -14 26 -31 22 -42 30
-30 11 15 -39 95 -166 223 -276 280 -112 58 -208 84 -330 91 -41 2 -62 1 -47
-1z"/>
<path d="M7360 7780 c0 -5 4 -10 9 -10 6 0 13 5 16 10 3 6 -1 10 -9 10 -9 0
-16 -4 -16 -10z"/>
<path d="M7480 7780 l-25 -8 28 -1 c15 -1 29 -1 32 -1 9 0 7 14 -2 16 -4 1
-19 -2 -33 -6z"/>
<path d="M5315 7720 c-3 -5 -1 -10 4 -10 6 0 11 5 11 10 0 6 -2 10 -4 10 -3 0
-8 -4 -11 -10z"/>
<path d="M3245 7058 c-5 -18 -10 -771 -12 -1673 -4 -1809 -7 -1713 58 -1866
44 -104 72 -144 163 -234 64 -63 101 -90 177 -129 55 -28 104 -46 115 -43 16
4 16 5 -3 6 -13 0 -28 10 -35 21 -7 11 -19 20 -26 20 -7 0 -10 5 -7 11 4 6 -2
13 -14 16 -18 5 -63 72 -60 91 3 19 -2 25 -11 12 -8 -12 -10 -10 -10 10 -1 27
-21 60 -38 60 -5 0 -8 9 -5 20 3 12 -1 22 -11 26 -9 3 -16 10 -16 16 0 5 5 6
10 3 6 -3 10 -2 10 2 0 5 -12 16 -27 25 -23 14 -25 18 -11 23 15 6 15 8 -3 26
-10 10 -16 25 -13 34 4 11 0 15 -17 15 -22 0 -22 0 -4 14 19 14 19 15 -8 27
-22 10 -25 15 -15 26 9 11 9 16 -2 23 -9 5 -11 20 -7 44 3 20 2 36 -4 36 -5 0
-9 -5 -9 -11 0 -5 -4 -7 -10 -4 -15 10 -12 35 5 35 8 0 15 5 15 11 0 6 -8 9
-18 7 -15 -4 -17 1 -14 33 3 29 0 40 -12 45 -20 8 -21 24 -1 24 19 0 19 17 1
51 -7 14 -16 38 -20 53 -6 23 -4 27 8 23 9 -4 16 -2 16 3 0 6 -7 10 -15 10
-16 0 -16 -2 -18 162 -2 63 -6 88 -14 88 -7 0 -13 5 -13 10 0 6 7 10 16 10 10
0 14 6 11 14 -3 7 0 19 6 25 8 8 7 11 -5 11 -26 0 -29 48 -4 65 18 14 19 15 2
15 -14 0 -17 5 -12 23 3 14 -1 33 -10 45 -14 20 -14 22 2 22 13 0 15 6 10 35
-4 21 -3 35 3 35 14 0 5 93 -11 119 -11 18 -11 23 1 31 8 5 15 24 15 42 1 24
5 32 16 30 13 -2 13 -1 0 10 -12 10 -14 24 -9 58 3 25 2 52 -4 62 -8 12 -6 23
7 42 9 15 14 35 11 45 -10 32 -12 179 -3 193 6 8 7 2 3 -19 -4 -18 -2 -34 4
-38 10 -6 18 46 10 70 -3 12 -1 59 7 130 3 28 6 61 7 74 1 13 11 28 22 33 18
7 17 8 -4 4 -21 -4 -23 -2 -18 23 3 16 1 33 -6 40 -8 8 -8 11 2 11 9 0 12 9 8
26 -3 20 1 28 20 37 24 11 24 11 4 19 -27 10 -27 24 2 33 l22 8 -22 4 c-23 4
-34 43 -13 43 15 0 12 57 -2 63 -7 3 -2 6 11 6 17 1 21 4 14 14 -14 18 -14 60
0 69 9 6 9 10 0 16 -9 6 -10 17 -4 40 7 21 6 32 -1 32 -6 0 -7 10 -3 28 4 15
7 32 6 37 -7 59 -6 92 2 103 6 7 6 17 0 25 -13 17 -10 67 5 95 11 19 10 22 -5
23 -11 0 -13 3 -5 6 14 6 16 49 2 58 -7 4 -7 12 0 25 7 13 7 21 -1 26 -8 4 -7
9 2 15 12 7 12 12 1 29 -7 11 -10 31 -6 44 3 13 1 27 -5 30 -6 4 -11 14 -11
23 0 13 3 13 15 3 13 -11 15 -8 15 20 0 28 -2 31 -16 20 -13 -12 -15 -9 -10
28 3 23 1 42 -5 42 -5 0 -9 5 -9 10 0 6 9 10 20 10 11 0 20 4 20 9 0 5 -8 8
-17 7 -15 -1 -19 11 -25 69 -12 121 -15 139 -27 143 -16 5 -14 22 4 22 8 0 15
4 15 9 0 5 -7 16 -15 25 -8 8 -15 24 -15 34 0 11 -6 23 -12 26 -10 5 -10 7 0
12 6 3 12 10 12 16 0 14 -48 58 -62 58 -6 0 -19 7 -29 15 -15 15 -17 13 -24
-17z m185 -778 c0 -5 -7 -10 -15 -10 -8 0 -15 5 -15 10 0 6 7 10 15 10 8 0 15
-4 15 -10z m-15 -290 c3 -5 1 -10 -4 -10 -6 0 -11 5 -11 10 0 6 2 10 4 10 3 0
8 -4 11 -10z m-40 -569 c3 -5 1 -12 -5 -16 -5 -3 -10 1 -10 9 0 18 6 21 15 7z
m-15 -437 c0 -8 -5 -12 -10 -9 -6 4 -8 11 -5 16 9 14 15 11 15 -7z"/>
<path d="M3280 7080 c0 -5 9 -10 20 -10 11 0 20 5 20 10 0 6 -9 10 -20 10 -11
0 -20 -4 -20 -10z"/>
<path d="M5927 6231 c4 -20 2 -23 -6 -11 -6 8 -11 10 -11 4 0 -6 9 -19 20 -29
11 -10 20 -13 20 -7 0 7 5 12 10 12 14 0 12 -37 -2 -44 -9 -4 -8 -5 2 -5 32 2
40 -2 40 -22 0 -11 4 -18 9 -15 4 3 17 -1 27 -9 10 -8 28 -15 39 -15 l20 -1
-20 -9 c-22 -9 -21 -10 11 -14 12 -1 29 -10 39 -19 9 -9 23 -17 31 -17 8 0 17
-7 20 -15 4 -8 10 -15 15 -15 12 0 42 -29 58 -55 10 -17 11 -15 5 15 -21 115
-161 251 -295 288 -35 9 -36 9 -32 -17z"/>
<path d="M6366 6130 c28 -86 44 -174 44 -243 0 -42 3 -49 28 -59 30 -12 93
-11 105 1 12 12 15 111 4 118 -5 3 -6 11 -3 18 2 7 -4 21 -15 31 -10 9 -19 23
-19 31 0 7 -7 13 -15 13 -8 0 -15 9 -15 20 0 11 -4 20 -9 20 -5 0 -23 12 -39
28 -17 15 -35 32 -41 37 -6 6 -20 21 -30 35 -18 22 -17 17 5 -50z m174 -274
c0 -3 -4 -8 -10 -11 -5 -3 -10 -1 -10 4 0 6 5 11 10 11 6 0 10 -2 10 -4z m-65
-16 c3 -5 1 -10 -4 -10 -6 0 -11 5 -11 10 0 6 2 10 4 10 3 0 8 -4 11 -10z"/>
<path d="M5230 5641 c0 -4 7 -32 16 -61 31 -105 110 -198 199 -236 33 -13 36
-18 31 -42 -9 -45 -17 -379 -8 -358 8 19 9 19 14 -2 4 -15 11 -20 23 -16 13 6
15 2 9 -22 -6 -24 -5 -27 7 -18 19 15 69 11 80 -7 7 -11 9 -9 9 8 0 25 15 39
25 23 11 -18 25 -10 25 14 0 15 7 26 18 29 16 4 15 5 -1 6 -14 1 -18 8 -16 29
1 15 -1 34 -5 43 -4 9 -6 20 -5 25 3 19 -2 33 -17 48 -8 9 -11 16 -5 16 6 0 2
16 -9 35 -11 20 -19 39 -17 43 1 4 -6 18 -16 32 -45 63 -107 162 -107 171 0 5
-9 14 -20 21 -11 7 -20 16 -20 20 0 3 -14 20 -31 37 -17 17 -28 35 -24 41 3 5
-1 10 -9 10 -9 0 -18 11 -22 24 -3 13 -18 35 -32 49 -28 25 -92 52 -92 38z"/>
<path d="M9010 5385 c0 -9 5 -15 11 -13 6 2 11 8 11 13 0 5 -5 11 -11 13 -6 2
-11 -4 -11 -13z"/>
<path d="M8925 3410 c3 -5 10 -10 16 -10 5 0 9 5 9 10 0 6 -7 10 -16 10 -8 0
-12 -4 -9 -10z"/>
<path d="M9005 3350 c3 -5 10 -10 16 -10 5 0 9 5 9 10 0 6 -7 10 -16 10 -8 0
-12 -4 -9 -10z"/>
<path d="M8965 3329 c-4 -6 -3 -15 3 -21 6 -6 11 -4 15 6 7 18 -9 31 -18 15z"/>
<path d="M8970 3271 c0 -6 5 -13 10 -16 6 -3 10 1 10 9 0 9 -4 16 -10 16 -5 0
-10 -4 -10 -9z"/>
<path d="M8945 3230 c-3 -5 -1 -10 4 -10 6 0 11 5 11 10 0 6 -2 10 -4 10 -3 0
-8 -4 -11 -10z"/>
<path d="M3240 2635 c0 -2 14 -11 30 -20 17 -9 30 -22 30 -30 0 -8 6 -15 13
-15 7 0 28 -13 47 -28 35 -29 69 -46 82 -44 4 1 5 -5 2 -13 -5 -11 3 -17 26
-21 19 -4 35 -15 40 -28 5 -12 9 -17 9 -13 1 4 10 3 21 -3 11 -6 18 -15 14
-21 -3 -6 4 -7 20 -3 19 4 26 2 26 -9 0 -8 6 -15 13 -14 41 1 59 -5 64 -22 3
-12 11 -17 19 -14 8 3 14 0 14 -7 0 -8 9 -10 25 -6 14 4 25 2 25 -4 0 -5 9
-10 20 -10 10 0 23 -6 27 -14 11 -19 59 -31 67 -17 10 16 26 14 26 -3 0 -11 9
-13 34 -9 21 3 46 -1 64 -10 27 -13 31 -13 37 0 5 14 8 13 25 -2 11 -10 20
-14 20 -9 0 12 45 12 56 2 12 -13 24 -9 24 9 0 14 2 14 20 -2 20 -18 21 -18
36 4 13 17 19 20 30 10 11 -9 17 -9 28 0 11 10 20 10 37 1 14 -8 19 -8 15 -1
-4 6 -1 12 6 12 7 1 20 3 28 4 8 1 21 3 28 4 6 0 12 9 13 19 0 13 3 12 11 -5
16 -33 34 -28 30 8 -1 4 10 9 23 12 14 2 25 0 25 -6 0 -6 8 -3 18 5 9 9 22 13
29 11 7 -2 13 7 15 24 2 18 10 29 24 33 13 3 20 12 18 23 -1 11 4 17 17 17 11
0 17 -4 14 -10 -3 -5 -1 -10 4 -10 6 0 11 4 11 9 0 5 12 12 28 14 l27 4 -27 2
c-16 0 -28 6 -28 12 0 5 -4 7 -10 4 -5 -3 -27 -1 -47 4 -21 6 -166 11 -323 12
-347 3 -531 13 -630 34 -96 20 -236 68 -311 105 -55 28 -79 36 -79 25z m1310
-235 c-20 -13 -33 -13 -25 0 3 6 14 10 23 10 15 0 15 -2 2 -10z m-25 -40 c-3
-5 -12 -10 -20 -10 -8 0 -17 5 -20 10 -4 6 5 10 20 10 15 0 24 -4 20 -10z"/>
<path d="M8028 2533 c7 -3 16 -2 19 1 4 3 -2 6 -13 5 -11 0 -14 -3 -6 -6z"/>
<path d="M7988 2525 c-6 -7 -145 -32 -253 -46 -63 -8 -396 -13 -1110 -14
-1171 -3 -1127 -3 -1122 -18 2 -7 12 -13 23 -13 79 -6 80 -7 34 -14 -40 -6
-36 -7 32 -8 63 -2 78 -5 82 -19 8 -26 66 -27 66 -2 0 11 5 19 10 19 6 0 10
-7 10 -15 0 -8 7 -15 15 -15 8 0 15 5 15 10 0 18 25 11 38 -11 10 -16 17 -18
25 -10 8 8 8 14 -1 23 -15 15 -16 38 -1 38 5 0 7 -4 4 -10 -7 -12 4 -14 63
-10 36 1 41 -1 36 -15 -6 -14 -3 -16 14 -10 16 5 22 2 22 -10 0 -9 4 -14 9
-11 8 5 110 9 194 7 31 -1 37 -4 37 -23 l0 -22 16 22 c11 17 19 20 32 13 11
-6 24 -6 34 0 11 6 18 4 23 -9 6 -16 7 -16 21 2 13 19 14 19 34 1 20 -18 21
-18 35 1 15 19 15 19 30 -1 10 -12 19 -16 23 -10 10 14 82 18 82 5 0 -6 -7
-13 -15 -16 -8 -4 -15 -10 -15 -15 0 -18 30 5 36 27 8 33 26 30 22 -3 -2 -16
2 -28 11 -31 8 -3 11 0 7 6 -3 5 3 21 14 33 11 13 19 18 20 11 0 -10 5 -10 21
-2 16 9 25 8 40 -6 17 -16 19 -16 19 -1 0 13 9 17 40 15 37 -1 40 -3 40 -30 0
-16 4 -27 9 -24 5 3 7 14 4 25 -5 21 28 31 101 31 22 0 48 5 56 10 13 9 13 11
0 20 -8 5 -10 10 -4 10 6 0 18 -10 26 -22 8 -12 19 -18 26 -14 17 10 15 24 -5
29 -10 3 0 5 22 5 22 0 32 -2 23 -5 -10 -2 -18 -10 -18 -17 0 -16 71 -16 85 1
14 16 75 27 75 14 0 -6 -9 -11 -20 -11 -11 0 -20 -4 -20 -10 0 -5 26 -8 63 -6
34 2 68 -1 75 -7 8 -6 17 -6 26 2 11 9 17 8 29 -3 13 -14 16 -14 21 -1 6 18
57 20 73 4 6 -6 17 -8 24 -3 19 11 49 12 49 2 0 -5 5 -6 11 -3 5 4 19 -1 31
-11 18 -18 21 -18 32 -2 15 20 54 14 73 -11 11 -14 12 -14 13 4 1 19 1 19 11
2 8 -13 14 -15 24 -7 9 8 14 5 18 -10 7 -26 27 -26 27 0 0 11 5 20 10 20 6 0
10 -7 10 -15 0 -22 9 -19 38 12 l25 28 -7 -28 c-5 -23 -3 -27 13 -27 11 0 32
12 47 26 21 22 28 24 35 13 7 -12 12 -12 30 -1 17 11 23 11 29 2 11 -18 33 -1
27 21 -6 22 17 39 44 32 12 -4 19 0 19 10 0 20 -72 29 -83 10 -14 -23 -27 -14
-27 18 0 27 2 30 15 19 12 -10 15 -10 15 4 0 32 -43 15 -54 -22 -4 -12 -12
-19 -18 -16 -6 4 -6 10 1 17 17 17 13 25 -16 30 -23 3 -21 4 10 6 20 0 37 6
37 11 0 6 9 10 20 10 11 0 20 5 20 10 0 11 -4 13 -12 5z m-2271 -101 c-3 -3
-12 -4 -19 -1 -8 3 -5 6 6 6 11 1 17 -2 13 -5z m457 -9 c3 -8 1 -15 -4 -15 -6
0 -10 7 -10 15 0 8 2 15 4 15 2 0 6 -7 10 -15z m1023 9 c-3 -3 -12 -4 -19 -1
-8 3 -5 6 6 6 11 1 17 -2 13 -5z m153 -9 c0 -8 -4 -15 -10 -15 -5 0 -10 7 -10
15 0 8 5 15 10 15 6 0 10 -7 10 -15z m-100 -5 c0 -5 -7 -10 -16 -10 -8 0 -12
5 -9 10 3 6 10 10 16 10 5 0 9 -4 9 -10z m60 0 c0 -5 -4 -10 -10 -10 -5 0 -10
5 -10 10 0 6 5 10 10 10 6 0 10 -4 10 -10z m-1587 -7 c-7 -2 -21 -2 -30 0 -10
3 -4 5 12 5 17 0 24 -2 18 -5z m330 0 c-7 -2 -21 -2 -30 0 -10 3 -4 5 12 5 17
0 24 -2 18 -5z m70 0 c-7 -2 -19 -2 -25 0 -7 3 -2 5 12 5 14 0 19 -2 13 -5z
m734 1 c-3 -3 -12 -4 -19 -1 -8 3 -5 6 6 6 11 1 17 -2 13 -5z m260 0 c-3 -3
-12 -4 -19 -1 -8 3 -5 6 6 6 11 1 17 -2 13 -5z m473 -8 c0 -3 -4 -8 -10 -11
-5 -3 -10 -1 -10 4 0 6 5 11 10 11 6 0 10 -2 10 -4z"/>
<path d="M8110 2455 c0 -8 5 -15 10 -15 6 0 10 7 10 15 0 8 -4 15 -10 15 -5 0
-10 -7 -10 -15z"/>
<path d="M5310 2445 c0 -9 5 -15 11 -13 6 2 11 8 11 13 0 5 -5 11 -11 13 -6 2
-11 -4 -11 -13z"/>
<path d="M5356 2445 c-3 -8 -1 -15 4 -15 13 0 22 18 11 24 -5 3 -11 -1 -15 -9z"/>
<path d="M5390 2450 c0 -5 5 -10 10 -10 6 0 10 5 10 10 0 6 -4 10 -10 10 -5 0
-10 -4 -10 -10z"/>
<path d="M5425 2450 c-3 -5 -5 -10 -3 -11 37 -10 58 -8 58 6 0 17 -45 21 -55
5z"/>
<path d="M5230 2440 c0 -5 5 -10 10 -10 6 0 10 5 10 10 0 6 -4 10 -10 10 -5 0
-10 -4 -10 -10z"/>
<path d="M5468 2413 c7 -3 16 -2 19 1 4 3 -2 6 -13 5 -11 0 -14 -3 -6 -6z"/>
<path d="M5620 2392 c0 -12 19 -26 26 -19 2 2 -2 10 -11 17 -9 8 -15 8 -15 2z"/>
<path d="M5890 2387 c0 -17 42 -15 48 1 2 7 -7 12 -22 12 -15 0 -26 -6 -26
-13z"/>
<path d="M8040 2385 c0 -18 12 -19 28 -3 9 9 15 9 24 0 17 -17 29 -15 22 3 -4
9 -19 15 -40 15 -24 0 -34 -5 -34 -15z"/>
<path d="M7485 2350 c-8 -13 15 -24 27 -12 6 6 4 11 -6 15 -8 3 -18 2 -21 -3z"/>
<path d="M6175 2340 c4 -6 11 -8 16 -5 14 9 11 15 -7 15 -8 0 -12 -5 -9 -10z"/>
<path d="M7536 2341 c-4 -7 -5 -15 -2 -18 9 -9 19 4 14 18 -4 11 -6 11 -12 0z"/>
<path d="M6670 2330 c0 -5 5 -10 10 -10 6 0 10 5 10 10 0 6 -4 10 -10 10 -5 0
-10 -4 -10 -10z"/>
<path d="M6428 2323 c6 -2 18 -2 25 0 6 3 1 5 -13 5 -14 0 -19 -2 -12 -5z"/>
</g>
</svg>
